<?xml version="1.0" encoding="utf-8"?>
<!-- Generator: $$$/GeneralStr/196=Adobe Illustrator 27.6.0, SVG Export Plug-In . SVG Version: 6.00 Build 0)  -->
<svg version="1.1" id="图层_1" xmlns="http://www.w3.org/2000/svg" xmlns:xlink="http://www.w3.org/1999/xlink" x="0px" y="0px"
	 viewBox="0 0 200 200" style="enable-background:new 0 0 200 200;" xml:space="preserve">
<style type="text/css">
	.st0{fill:#707070;}
</style>
<path class="st0" d="M77.3,100c0,2.1,1.7,3.8,3.8,3.8h37.8c2.1,0,3.8-1.7,3.8-3.8s-1.7-3.8-3.8-3.8H81.1C79,96.2,77.3,97.9,77.3,100
	z M127.7,62h-17.6c-2.1,0-3.8,1.7-3.8,3.8s1.7,3.8,3.8,3.8h15.1c2.8,0,5,2.3,5,5.1v15.2c0,2.1,1.7,3.8,3.8,3.8
	c2.1,0,3.8-1.7,3.8-3.8V72.2C137.8,66.6,133.2,62,127.7,62z M66,93.7c2.1,0,3.8-1.7,3.8-3.8V74.7c0-2.8,2.3-5.1,5-5.1h15.1
	c2.1,0,3.8-1.7,3.8-3.8S92,62,89.9,62H72.3c-5.6,0-10.1,4.5-10.1,10.1v17.7C62.2,92,63.9,93.7,66,93.7z M89.9,130.4H74.8
	c-2.8,0-5-2.3-5-5.1v-15.2c0-2.1-1.7-3.8-3.8-3.8s-3.8,1.7-3.8,3.8v17.7c0,5.6,4.5,10.1,10.1,10.1h17.6c2.1,0,3.8-1.7,3.8-3.8
	C93.7,132.1,92,130.4,89.9,130.4z M134,106.3c-2.1,0-3.8,1.7-3.8,3.8v15.2c0,2.8-2.3,5.1-5,5.1h-15.1c-2.1,0-3.8,1.7-3.8,3.8
	c0,2.1,1.7,3.8,3.8,3.8h17.6c5.6,0,10.1-4.5,10.1-10.1v-17.7C137.8,108,136.1,106.3,134,106.3z"/>
</svg>
