<?xml version="1.0" encoding="utf-8"?>
<!-- Generator: $$$/GeneralStr/196=Adobe Illustrator 27.6.0, SVG Export Plug-In . SVG Version: 6.00 Build 0)  -->
<svg version="1.1" id="图层_1" xmlns="http://www.w3.org/2000/svg" xmlns:xlink="http://www.w3.org/1999/xlink" x="0px" y="0px"
	 viewBox="0 0 200 200" style="enable-background:new 0 0 200 200;" xml:space="preserve">
<style type="text/css">
	.st0{fill:#707070;}
</style>
<path class="st0" d="M73.1,121.3l-11.8,12.3c-2.1,2.1-2.1,5.6,0,7.7l-0.5-0.5c2.1,2.1,5.2,2.1,7.2,0l12.3-12.8
	c6.1,4.1,13.8,6.6,21.5,6.6c21,0,38.4-17.4,38.4-38.4s-16.9-38.4-37.9-38.4c-21,0-38.3,17.4-38.3,38.4
	C63.9,105.9,67.5,114.6,73.1,121.3L73.1,121.3z M101.8,126.9c-16.9,0-30.7-13.8-30.7-30.7s13.8-30.7,30.7-30.7s30.7,13.8,30.7,30.7
	C132.5,113.1,118.7,126.9,101.8,126.9z"/>
</svg>
